<?xml version="1.0" encoding="UTF-8"?>
<svg version="1.1" xmlns="http://www.w3.org/2000/svg" width="1788" height="992">
<path d="M0 0 C20.35615789 16.06509471 34.00955568 37.07797929 40.3125 62.25 C40.49723877 62.96921631 40.68197754 63.68843262 40.87231445 64.42944336 C46.97840421 90.96566251 41.95432276 120.91551961 28.02734375 144.1484375 C11.35003457 170.76038019 -13.53895703 187.95360344 -43.765625 195.5 C-47.6875 196.25 -47.6875 196.25 -50.6875 195.25 C-50.006875 194.981875 -49.32625 194.71375 -48.625 194.4375 C-35.42096839 189.09969999 -22.84120007 183.23492505 -11.6875 174.25 C-10.96046875 173.68667969 -10.2334375 173.12335938 -9.484375 172.54296875 C-0.34503316 165.09545164 5.94977906 154.84070649 8.3125 143.25 C9.22006079 132.32436434 6.76417734 122.21673799 0.3125 113.25 C-2.90735467 110.37268306 -4.5035511 109.29735796 -8.8125 109.125 C-12.54472847 110.58543723 -14.00490679 112.74670373 -15.6875 116.25 C-16.58257421 119.42052957 -17.10095792 122.62526649 -17.625 125.875 C-20.65352334 142.54700584 -27.26943476 156.90335961 -41.2578125 167.12890625 C-54.55964119 175.90204967 -72.3004583 183.67665252 -88.6875 181.25 C-92.13878672 179.91792442 -94.09746081 178.84003919 -96.6875 176.25 C-97.01953125 173.8359375 -97.01953125 173.8359375 -96.6875 171.25 C-92.6132718 165.95000114 -86.13894583 162.58674025 -80.54296875 159.12109375 C-75.60196033 155.88341518 -71.15474723 152.10434343 -66.6875 148.25 C-65.74519531 147.44304687 -64.80289063 146.63609375 -63.83203125 145.8046875 C-49.42958883 133.13053817 -36.37653251 115.52797195 -34.44921875 95.8125 C-34.15400481 85.61985041 -36.52098122 75.63871284 -43.18359375 67.70703125 C-46.14260905 64.840245 -48.71936408 64.39118649 -52.6875 63.8125 C-56.86729409 64.42205331 -58.14515051 65.9308215 -60.6875 69.25 C-62.34326306 74.02177471 -63.07566921 78.66798564 -63.67480469 83.67236328 C-66.54757207 107.54738948 -78.28306349 123.80361023 -94.75 140.75 C-95.41056396 141.44504639 -96.07112793 142.14009277 -96.75170898 142.85620117 C-101.58385737 147.72905141 -106.11817334 151.19527753 -113.296875 151.28125 C-116.93168287 150.37918089 -119.29412384 149.56661984 -122.25 147.1875 C-124.27323615 143.0530609 -124.8021311 139.75401955 -123.6875 135.25 C-121.73047152 132.21098901 -119.22587212 129.8076387 -116.6875 127.25 C-104.08408888 112.94274801 -95.94726887 95.43363558 -89.875 77.5 C-89.58488037 76.64913818 -89.29476074 75.79827637 -88.99584961 74.92163086 C-83.33257029 57.60779519 -81.20145602 36.32464969 -88.6875 19.25 C-92.57819131 11.78555571 -97.5177746 5.98122785 -105.6875 3.25 C-108.44503217 2.90032131 -108.44503217 2.90032131 -111.25 2.9375 C-112.17941406 2.92074219 -113.10882813 2.90398437 -114.06640625 2.88671875 C-117.22279654 3.32419162 -118.5182068 3.91345971 -120.6875 6.25 C-122.16033755 11.0178834 -121.28459802 15.00763232 -120.25 19.75 C-116.8169732 37.78787198 -116.65855531 58.51535035 -121.6875 76.25 C-121.97753906 77.29873291 -121.97753906 77.29873291 -122.2734375 78.36865234 C-127.25057642 95.9614559 -135.12031129 110.95241815 -147.6875 124.25 C-148.14366699 124.74177734 -148.59983398 125.23355469 -149.06982422 125.74023438 C-157.35284091 134.62527484 -157.35284091 134.62527484 -162.6875 136.25 C-163.6775 136.25 -164.6675 136.25 -165.6875 136.25 C-171.34958652 123.28382187 -176.11267946 109.52471016 -176.6875 95.25 C-176.7390625 94.19296875 -176.790625 93.1359375 -176.84375 92.046875 C-177.59620314 62.57579363 -167.50817794 34.39851322 -147.4609375 12.7109375 C-108.9819221 -27.72234416 -44.95953455 -34.18713251 0 0 Z " fill="#D52E20" transform="translate(608.6875,408.75)"/>
<path d="M0 0 C0.68505615 -0.00686325 1.3701123 -0.0137265 2.07592773 -0.02079773 C4.33541727 -0.03906542 6.59421239 -0.03522847 8.85375977 -0.02954102 C10.42790452 -0.03410301 12.00204727 -0.03940864 13.57618713 -0.04542542 C16.8739532 -0.05435653 20.1714771 -0.05193369 23.46923828 -0.04199219 C27.69064322 -0.03050496 31.91121136 -0.0507094 36.13250637 -0.07990932 C39.3830952 -0.09827626 42.6334837 -0.0979779 45.8841114 -0.0922718 C47.44020829 -0.09211863 48.9963188 -0.09815949 50.55236626 -0.11056328 C52.73075352 -0.12548104 54.90759776 -0.11479281 57.0859375 -0.09765625 C58.94314674 -0.097407 58.94314674 -0.097407 60.83787537 -0.09715271 C64.75097404 0.50266134 66.35016866 1.60555986 69.10766602 4.40405273 C71.10766602 8.40405273 71.10766602 8.40405273 71.10766602 18.40405273 C49.65766602 18.40405273 28.20766602 18.40405273 6.10766602 18.40405273 C6.10766602 28.96405273 6.10766602 39.52405273 6.10766602 50.40405273 C20.62766602 50.07405273 35.14766602 49.74405273 50.10766602 49.40405273 C50.10766602 48.08405273 50.10766602 46.76405273 50.10766602 45.40405273 C47.15481882 43.92762914 44.42317618 44.18132335 41.13110352 44.08764648 C40.44585602 44.06686539 39.76060852 44.04608429 39.05459595 44.02467346 C36.86405532 43.95925089 34.67339413 43.9003272 32.48266602 43.84155273 C30.99827851 43.79836055 29.51390323 43.75474603 28.02954102 43.71069336 C24.38903784 43.60278135 20.74844407 43.50365493 17.10766602 43.40405273 C17.10766602 38.12405273 17.10766602 32.84405273 17.10766602 27.40405273 C24.01271013 27.28050399 30.91711174 27.18973535 37.82299805 27.12939453 C40.17239589 27.10424212 42.52171543 27.07011611 44.87084961 27.02685547 C48.24685984 26.96623847 51.62183613 26.93784978 54.99829102 26.91577148 C56.57504608 26.87706184 56.57504608 26.87706184 58.18365479 26.83757019 C65.46820355 26.83476505 65.46820355 26.83476505 68.73950195 29.74707031 C71.97549768 36.03139249 71.36815921 42.35174569 71.42016602 49.27905273 C71.46367188 51.19911133 71.46367188 51.19911133 71.50805664 53.15795898 C71.51643555 54.3915918 71.52481445 55.62522461 71.53344727 56.89624023 C71.54802979 58.02400879 71.5626123 59.15177734 71.57763672 60.3137207 C71.00202225 64.09872224 69.75395429 65.68750373 67.10766602 68.40405273 C63.48863987 70.81673683 61.76266625 70.67790356 57.45239258 70.72631836 C56.78044861 70.73624817 56.10850464 70.74617798 55.41619873 70.75640869 C53.19352104 70.78561277 50.97112904 70.79925043 48.74829102 70.81030273 C47.19993078 70.82181128 45.65157059 70.83332668 44.10321045 70.84484863 C40.85500768 70.86585906 37.60690373 70.87754974 34.35864258 70.88452148 C30.20776792 70.89547366 26.05821129 70.94349009 21.90774918 71.00046539 C18.70770534 71.03782703 15.50797509 71.04813505 12.30773163 71.05119324 C10.7783464 71.05722584 9.24896536 71.0732144 7.71979523 71.0995636 C-5.73055665 71.31473231 -5.73055665 71.31473231 -10.32299805 67.48803711 C-13.46554563 64.13552574 -14.02029228 61.86533808 -14.0534668 57.29931641 C-14.06307434 56.23448532 -14.07268188 55.16965424 -14.08258057 54.07255554 C-14.08683044 52.9173793 -14.09108032 51.76220306 -14.09545898 50.57202148 C-14.10115906 49.38812332 -14.10685913 48.20422516 -14.11273193 46.98445129 C-14.1221922 44.47515764 -14.12871997 41.9658515 -14.13256836 39.45654297 C-14.14226751 35.61786181 -14.17327949 31.77971736 -14.20483398 27.94116211 C-14.21136448 25.50561842 -14.21661477 23.07007089 -14.22045898 20.63452148 C-14.23280579 19.48541794 -14.24515259 18.33631439 -14.25787354 17.15238953 C-14.25487244 16.07810196 -14.25187134 15.00381439 -14.2487793 13.89697266 C-14.25242493 12.95480392 -14.25607056 12.01263519 -14.25982666 11.04191589 C-13.69627624 6.99674985 -11.96444476 4.49478802 -9.13560486 1.61680603 C-6.00945602 -0.07324726 -3.54560843 0.01548225 0 0 Z " fill="#242B58" transform="translate(692.892333984375,458.595947265625)"/>
<path d="M0 0 C0.72216705 0.00719055 1.44433411 0.0143811 2.18838501 0.02178955 C2.94945557 0.0214975 3.71052612 0.02120544 4.49465942 0.02090454 C7.01621814 0.02230052 9.53748323 0.03787415 12.05899048 0.05352783 C13.80490965 0.05725701 15.55083092 0.06010443 17.29675293 0.06210327 C21.89667518 0.06974722 26.49647155 0.0894022 31.09634399 0.11151123 C35.78830258 0.13195329 40.48028147 0.14110147 45.17227173 0.15118408 C54.38197141 0.17264743 63.59154454 0.20783573 72.80117798 0.24884033 C72.80117798 6.18884033 72.80117798 12.12884033 72.80117798 18.24884033 C42.11117798 18.74384033 42.11117798 18.74384033 10.80117798 19.24884033 C10.80117798 20.56884033 10.80117798 21.88884033 10.80117798 23.24884033 C13.35476605 24.52563437 15.15488324 24.37343821 18.01358032 24.37481689 C19.64569962 24.38052704 19.64569962 24.38052704 21.31079102 24.38635254 C22.49097809 24.38737976 23.67116516 24.38840698 24.88711548 24.38946533 C27.36889552 24.4077896 29.85066661 24.42735955 32.33242798 24.44805908 C36.25868822 24.47707328 40.18437374 24.49884135 44.11074829 24.49932861 C47.89089382 24.5026537 51.6697013 24.53714928 55.44961548 24.57696533 C56.62575409 24.56989563 57.8018927 24.56282593 59.01367188 24.55554199 C67.13517752 24.67736196 67.13517752 24.67736196 70.49502563 27.56036377 C73.78838997 34.33915405 73.98793827 40.93111582 74.05117798 48.31134033 C74.06052368 49.06697266 74.06986938 49.82260498 74.07949829 50.60113525 C74.04799619 56.17276715 73.80578858 62.13709335 70.70246887 66.95436096 C67.74125446 68.97048116 64.66522411 68.64063353 61.20864868 68.5894165 C60.43767853 68.58985458 59.66670837 68.59029266 58.87237549 68.59074402 C56.32364593 68.58865371 53.7755739 68.5653118 51.22695923 68.54180908 C49.46005106 68.53621398 47.69313824 68.53194347 45.92622375 68.52894592 C41.2752803 68.51749041 36.62461782 68.4880172 31.9737854 68.45483398 C27.22813722 68.4241483 22.48244364 68.4104438 17.73672485 68.39532471 C8.42473257 68.36314807 -0.88697741 68.31037443 -10.19882202 68.24884033 C-10.19882202 62.30884033 -10.19882202 56.36884033 -10.19882202 50.24884033 C20.49117798 49.75384033 20.49117798 49.75384033 51.80117798 49.24884033 C51.80117798 47.26884033 51.80117798 45.28884033 51.80117798 43.24884033 C50.76880508 43.2467028 50.76880508 43.2467028 49.71557617 43.24452209 C42.54497547 43.22481878 35.3752253 43.17053038 28.20498657 43.09625244 C25.52959692 43.07030141 22.85523224 43.05867746 20.17959595 43.05328369 C16.33152367 43.04399573 12.48488751 43.00300311 8.63711548 42.95587158 C7.44315155 42.95980423 6.24918762 42.96373688 5.01904297 42.9677887 C-4.26113532 42.80513144 -4.26113532 42.80513144 -7.95785522 40.11846924 C-10.6593879 36.65907114 -10.93686623 34.98092766 -10.89022827 30.62774658 C-10.88442749 29.36253174 -10.87862671 28.09731689 -10.87265015 26.79376221 C-10.83591187 25.47956299 -10.79917358 24.16536377 -10.76132202 22.81134033 C-10.75938843 21.5010083 -10.75745483 20.19067627 -10.75546265 18.84063721 C-10.49718536 0.0437904 -10.49718536 0.0437904 0 0 Z " fill="#242B58" transform="translate(873.1988220214844,459.75115966796875)"/>
<path d="M0 0 C9.59658091 -0.06773076 19.19300351 -0.12278995 28.78976917 -0.15543652 C33.24575989 -0.17110387 37.70157885 -0.19236152 42.1574707 -0.22631836 C46.4562976 -0.25887388 50.75495912 -0.27684495 55.05389977 -0.28463173 C56.69539685 -0.29018211 58.33688471 -0.30102049 59.97831154 -0.31719017 C62.2745596 -0.33891431 64.57012108 -0.3419691 66.86645508 -0.34057617 C68.17439529 -0.34723801 69.48233551 -0.35389984 70.82991028 -0.36076355 C74 0 74 0 75.92158508 1.30316162 C77.7692522 4.21038446 77.42591028 7.4719262 77.3984375 10.80859375 C77.40130768 11.57172379 77.40417786 12.33485382 77.40713501 13.12110901 C77.40917523 14.73414858 77.40364824 16.34721292 77.39111328 17.96020508 C77.37507996 20.42520744 77.39095076 22.88856477 77.41015625 25.35351562 C77.40817338 26.92187861 77.40432879 28.49024058 77.3984375 30.05859375 C77.40451019 30.79411972 77.41058289 31.52964569 77.4168396 32.28746033 C77.35866268 36.53694681 77.04673254 38.98031771 74 42 C71.51325989 42.48101807 71.51325989 42.48101807 68.51879883 42.45410156 C67.39786331 42.45379944 66.2769278 42.45349731 65.12202454 42.45318604 C63.91257675 42.43254089 62.70312897 42.41189575 61.45703125 42.390625 C60.21829758 42.38496521 58.9795639 42.37930542 57.70329285 42.37347412 C54.41335722 42.35486224 51.12420519 42.31893668 47.83453369 42.2746582 C44.47637697 42.23370631 41.11810207 42.21524413 37.75976562 42.1953125 C31.17255154 42.15456264 24.58728258 42.07627603 18 42 C18 50.58 18 59.16 18 68 C12.06 68 6.12 68 0 68 C0 53.81 0 39.62 0 25 C3.87492188 24.93941406 7.74984375 24.87882812 11.7421875 24.81640625 C15.48195421 24.7546544 19.22168951 24.69125114 22.96142578 24.62768555 C25.56686629 24.58428863 28.17233611 24.54261714 30.77783203 24.50268555 C34.51604056 24.44509808 38.25410082 24.3813706 41.9921875 24.31640625 C43.16304901 24.29969376 44.33391052 24.28298126 45.54025269 24.26576233 C46.62122223 24.24581711 47.70219177 24.22587189 48.81591797 24.20532227 C49.77078094 24.18977798 50.72564392 24.1742337 51.70944214 24.15821838 C54.02952228 24.14545368 54.02952228 24.14545368 56 23 C56 22.01 56 21.02 56 20 C53.46813122 18.73406561 51.65025209 18.84081806 48.81591797 18.79467773 C47.73494843 18.77473251 46.65397888 18.75478729 45.54025269 18.73423767 C44.36939117 18.71752518 43.19852966 18.70081268 41.9921875 18.68359375 C40.79643097 18.66281265 39.60067444 18.64203156 38.36868286 18.62062073 C34.53751536 18.55507711 30.70627762 18.49621782 26.875 18.4375 C24.28254473 18.39431937 21.69009664 18.35070523 19.09765625 18.30664062 C12.73184337 18.19939077 6.36595963 18.09813688 0 18 C0 12.06 0 6.12 0 0 Z " fill="#242B58" transform="translate(775,460)"/>
<path d="M0 0 C14.2003125 -0.1546875 14.2003125 -0.1546875 28.6875 -0.3125 C31.66998779 -0.35802002 34.65247559 -0.40354004 37.7253418 -0.45043945 C40.09162267 -0.46504369 42.45791609 -0.4777845 44.82421875 -0.48828125 C46.66433533 -0.526651 46.66433533 -0.526651 48.54162598 -0.5657959 C57.07867322 -0.57017882 57.07867322 -0.57017882 61.28417969 2.0324707 C63.42717949 5.73881143 63.70530452 8.7962961 63.62890625 12.96875 C63.63131821 13.72667847 63.63373016 14.48460693 63.63621521 15.26550293 C63.63523896 16.86243948 63.62189809 18.45941079 63.59692383 20.05615234 C63.56259807 22.49303765 63.5762761 24.92629609 63.59570312 27.36328125 C63.58880424 28.91928618 63.57913145 30.47528181 63.56640625 32.03125 C63.57136612 32.75534058 63.57632599 33.47943115 63.58143616 34.22546387 C63.46930051 39.07029426 62.50291524 41.63974461 59 45 C58.01 45.33 57.02 45.66 56 46 C56.30292969 46.50974365 56.60585937 47.0194873 56.91796875 47.54467773 C58.28090053 49.84095568 59.64049064 52.13919431 61 54.4375 C61.47695312 55.23994141 61.95390625 56.04238281 62.4453125 56.86914062 C62.89648438 57.63291016 63.34765625 58.39667969 63.8125 59.18359375 C64.23144531 59.89056396 64.65039062 60.59753418 65.08203125 61.32592773 C66 63 66 63 66 64 C53.74537359 66.04243773 53.74537359 66.04243773 48 64 C43.13921288 59.66333929 40.14833665 53.07340577 38 47 C38 46.34 38 45.68 38 45 C30.41 45 22.82 45 15 45 C15 51.27 15 57.54 15 64 C10.05 64 5.1 64 0 64 C0 42.88 0 21.76 0 0 Z M15 13 C15 19.27 15 25.54 15 32 C25.89 32 36.78 32 48 32 C48 25.73 48 19.46 48 13 C37.11 13 26.22 13 15 13 Z " fill="#878786" transform="translate(1365,460)"/>
<path d="M0 0 C14.2003125 -0.1546875 14.2003125 -0.1546875 28.6875 -0.3125 C31.66998779 -0.35802002 34.65247559 -0.40354004 37.7253418 -0.45043945 C40.09162267 -0.46504369 42.45791609 -0.4777845 44.82421875 -0.48828125 C46.66433533 -0.526651 46.66433533 -0.526651 48.54162598 -0.5657959 C57.07867322 -0.57017882 57.07867322 -0.57017882 61.28417969 2.0324707 C63.42717949 5.73881143 63.70530452 8.7962961 63.62890625 12.96875 C63.63131821 13.72667847 63.63373016 14.48460693 63.63621521 15.26550293 C63.63523896 16.86243948 63.62189809 18.45941079 63.59692383 20.05615234 C63.56259807 22.49303765 63.5762761 24.92629609 63.59570312 27.36328125 C63.58880424 28.91928618 63.57913145 30.47528181 63.56640625 32.03125 C63.57136612 32.75534058 63.57632599 33.47943115 63.58143616 34.22546387 C63.46930051 39.07029426 62.50291524 41.63974461 59 45 C58.01 45.33 57.02 45.66 56 46 C56.30292969 46.50974365 56.60585937 47.0194873 56.91796875 47.54467773 C58.28090053 49.84095568 59.64049064 52.13919431 61 54.4375 C61.47695312 55.23994141 61.95390625 56.04238281 62.4453125 56.86914062 C62.89648438 57.63291016 63.34765625 58.39667969 63.8125 59.18359375 C64.23144531 59.89056396 64.65039062 60.59753418 65.08203125 61.32592773 C66 63 66 63 66 64 C53.74537359 66.04243773 53.74537359 66.04243773 48 64 C43.13921288 59.66333929 40.14833665 53.07340577 38 47 C38 46.34 38 45.68 38 45 C30.41 45 22.82 45 15 45 C15 51.27 15 57.54 15 64 C10.05 64 5.1 64 0 64 C0 42.88 0 21.76 0 0 Z M15 13 C15 19.27 15 25.54 15 32 C25.89 32 36.78 32 48 32 C48 25.73 48 19.46 48 13 C37.11 13 26.22 13 15 13 Z " fill="#878786" transform="translate(1026,460)"/>
<path d="M0 0 C1.5672155 -0.02409439 1.5672155 -0.02409439 3.16609192 -0.04867554 C7.94649661 -0.09306697 12.72676171 -0.13418771 17.50732422 -0.15722656 C20.03020446 -0.17379347 22.55303764 -0.20109274 25.07568359 -0.23925781 C28.70915124 -0.2939608 32.34151808 -0.3158914 35.9753418 -0.33056641 C37.10257156 -0.35323578 38.22980133 -0.37590515 39.39118958 -0.39926147 C43.96828256 -0.38688806 47.12075453 -0.26326957 51.20727539 1.88842773 C54.10107566 7.26121053 53.59774363 12.58861397 53.4753418 18.58740234 C53.46826706 19.88989426 53.46119232 21.19238617 53.4539032 22.53434753 C53.43487568 25.98550993 53.38581493 29.43560848 53.3303833 32.88635254 C53.27909704 36.41220714 53.25636937 39.93823483 53.23120117 43.46435547 C53.17768918 50.37433993 53.08979002 57.28344481 52.98706055 64.19287109 C48.03706055 64.19287109 43.08706055 64.19287109 37.98706055 64.19287109 C37.98706055 57.92287109 37.98706055 51.65287109 37.98706055 45.19287109 C27.09706055 45.19287109 16.20706055 45.19287109 4.98706055 45.19287109 C4.98706055 51.46287109 4.98706055 57.73287109 4.98706055 64.19287109 C0.03706055 64.19287109 -4.91293945 64.19287109 -10.01293945 64.19287109 C-10.08079763 56.71698836 -10.13580278 49.24127477 -10.16837597 41.76514912 C-10.18401188 38.29342999 -10.20521158 34.82193306 -10.23925781 31.3503418 C-10.27818009 27.35642398 -10.29266574 23.36273847 -10.3059082 19.36865234 C-10.32139206 18.12577957 -10.33687592 16.8829068 -10.35282898 15.60237122 C-10.35305557 14.44154526 -10.35328217 13.2807193 -10.35351562 12.0847168 C-10.36017746 11.06545609 -10.36683929 10.04619537 -10.373703 8.99604797 C-9.95215484 5.72056721 -8.95078223 3.84429786 -7.01293945 1.19287109 C-4.52010171 -0.05354778 -2.78953132 0.03890874 0 0 Z M4.98706055 13.19287109 C4.98706055 19.46287109 4.98706055 25.73287109 4.98706055 32.19287109 C15.87706055 32.19287109 26.76706055 32.19287109 37.98706055 32.19287109 C37.98706055 25.92287109 37.98706055 19.65287109 37.98706055 13.19287109 C27.09706055 13.19287109 16.20706055 13.19287109 4.98706055 13.19287109 Z " fill="#878786" transform="translate(1106.012939453125,459.80712890625)"/>
<path d="M0 0 C20.79 0 41.58 0 63 0 C63 4.29 63 8.58 63 13 C47.16 13 31.32 13 15 13 C15 17.29 15 21.58 15 26 C26.22 26 37.44 26 49 26 C49 30.29 49 34.58 49 39 C37.78 39 26.56 39 15 39 C15 42.96 15 46.92 15 51 C30.84 51 46.68 51 63 51 C63 55.29 63 59.58 63 64 C42.21 64 21.42 64 0 64 C0 42.88 0 21.76 0 0 Z " fill="#878786" transform="translate(1298,460)"/>
<path d="M0 0 C4.95 0 9.9 0 15 0 C15.33 8.91 15.66 17.82 16 27 C18.2275 24.7415625 18.2275 24.7415625 20.5 22.4375 C24.19840715 18.73389845 27.93890825 15.19521747 31.98046875 11.87109375 C34.12922868 9.98322842 34.12922868 9.98322842 36.05078125 7.34765625 C41.65069776 0.45173142 41.65069776 0.45173142 46.30322266 -0.44287109 C51.90083087 -0.86672203 57.41954287 -0.51564799 63 0 C59.06632067 4.70841474 54.9804211 9.17980321 50.625 13.5 C50.06063232 14.06388428 49.49626465 14.62776855 48.91479492 15.20874023 C45.25407256 18.83910921 41.50283184 22.29428779 37.48828125 25.53515625 C35.79124438 27.20546813 35.01564625 28.86290531 34 31 C34.41773682 31.44279297 34.83547363 31.88558594 35.26586914 32.34179688 C37.19955151 34.39314917 39.13103149 36.44656317 41.0625 38.5 C41.71927734 39.19609375 42.37605469 39.8921875 43.05273438 40.609375 C47.47675818 45.31671067 51.76797267 50.11995826 56 55 C57.09634766 56.23556641 57.09634766 56.23556641 58.21484375 57.49609375 C58.78332031 58.13675781 59.35179687 58.77742187 59.9375 59.4375 C60.52402344 60.09621094 61.11054687 60.75492188 61.71484375 61.43359375 C63 63 63 63 63 64 C48.0758083 65.77317129 48.0758083 65.77317129 43.18066406 62.95117188 C39.49173654 59.81661009 36.78974411 55.92488136 34 52 C32.70688165 50.48325968 31.39708738 48.98038264 30.0625 47.5 C29.258125 46.571875 29.258125 46.571875 28.4375 45.625 C26.70450364 43.66596063 24.88660743 41.81114313 23 40 C19.54670333 41.88361636 18.0905092 42.74362989 16 46 C14.76761434 51.88184065 14.95610578 58.01784551 15 64 C10.05 64 5.1 64 0 64 C0 42.88 0 21.76 0 0 Z " fill="#878786" transform="translate(1231,460)"/>
<path d="M0 0 C1.16105255 0.00007553 2.3221051 0.00015106 3.51834106 0.00022888 C4.77669769 0.00539017 6.03505432 0.01055145 7.33154297 0.01586914 C8.61608368 0.01728409 9.90062439 0.01869904 11.22409058 0.02015686 C14.64029889 0.02397628 18.05646473 0.03380166 21.47265625 0.04486084 C24.95816473 0.05508732 28.44368006 0.05965713 31.92919922 0.06469727 C38.76906218 0.07542444 45.60888991 0.0930166 52.44873047 0.11352539 C52.44873047 4.40352539 52.44873047 8.69352539 52.44873047 13.11352539 C36.60873047 13.11352539 20.76873047 13.11352539 4.44873047 13.11352539 C4.44873047 25.65352539 4.44873047 38.19352539 4.44873047 51.11352539 C20.28873047 51.11352539 36.12873047 51.11352539 52.44873047 51.11352539 C52.44873047 55.40352539 52.44873047 59.69352539 52.44873047 64.11352539 C44.8252759 64.226535 37.20213355 64.31824577 29.57804489 64.37258625 C26.03771571 64.39866888 22.49798978 64.43403964 18.95800781 64.49072266 C14.88714852 64.55549745 10.81692174 64.57971649 6.74560547 64.60180664 C5.47569763 64.62761307 4.20578979 64.65341949 2.8973999 64.68000793 C1.12601654 64.68057442 1.12601654 64.68057442 -0.68115234 64.68115234 C-1.72039856 64.6922554 -2.75964478 64.70335846 -3.8303833 64.71479797 C-6.55126953 64.11352539 -6.55126953 64.11352539 -8.88679504 61.91264343 C-10.70430901 58.85616155 -11.05234008 57.27690606 -11.05297852 53.76000977 C-11.06235947 52.71542603 -11.07174042 51.67084229 -11.08140564 50.59460449 C-11.07017166 49.47678589 -11.05893768 48.35896729 -11.04736328 47.20727539 C-11.04881851 46.04981812 -11.05027374 44.89236084 -11.05177307 43.6998291 C-11.05011493 41.25550822 -11.03856336 38.8111768 -11.01782227 36.36694336 C-10.98887438 32.62707131 -10.99721506 28.88861749 -11.01025391 25.14868164 C-11.00401617 22.77237267 -10.99562495 20.39606818 -10.98486328 18.01977539 C-10.98779892 16.90195679 -10.99073456 15.78413818 -10.99375916 14.63244629 C-10.98107498 13.58786255 -10.96839081 12.54327881 -10.95532227 11.46704102 C-10.94991928 10.55168579 -10.9445163 9.63633057 -10.93894958 8.6932373 C-10.46944843 5.569069 -9.38416022 3.66612127 -7.55126953 1.11352539 C-4.91411857 -0.20505009 -2.95294313 -0.00639165 0 0 Z " fill="#878786" transform="translate(1173.55126953125,459.886474609375)"/>
<path d="M0 0 C20.79 0 41.58 0 63 0 C63 4.29 63 8.58 63 13 C55.08 13 47.16 13 39 13 C39 29.83 39 46.66 39 64 C34.05 64 29.1 64 24 64 C24 47.17 24 30.34 24 13 C16.08 13 8.16 13 0 13 C0 8.71 0 4.42 0 0 Z " fill="#878786" transform="translate(959,460)"/>
</svg>
